HIERARCHY
ROOT Hips
{
	OFFSET	0.00	0.00	0.00
	CHANNELS 6 Xposition Yposition Zposition Zrotation Xrotation Yrotation
	JOINT LeftUpLeg
	{
		OFFSET	 0.126116	-0.065224	 0.014019
		CHANNELS 3 Zrotation Xrotation Yrotation
		JOINT LeftLeg
		{
			OFFSET	 0.000000	 0.569914	 0.000000
			CHANNELS 3 Zrotation Xrotation Yrotation
			JOINT LeftFoot
			{
				OFFSET	 0.000000	 0.544423	 0.000000
				CHANNELS 3 Zrotation Xrotation Yrotation
				JOINT LeftToeBase
				{
					OFFSET	 0.000000	 0.207117	 0.000000
					CHANNELS 3 Zrotation Xrotation Yrotation
					End Site
					{
						OFFSET	 0.000000	 0.207117	 0.000000
					}
				}
			}
		}
	}
	JOINT RightUpLeg
	{
		OFFSET	-0.124023	-0.065224	 0.008373
		CHANNELS 3 Zrotation Xrotation Yrotation
		JOINT RightLeg
		{
			OFFSET	 0.000000	 0.570047	 0.000000
			CHANNELS 3 Zrotation Xrotation Yrotation
			JOINT RightFoot
			{
				OFFSET	 0.000000	 0.544354	 0.000000
				CHANNELS 3 Zrotation Xrotation Yrotation
				JOINT RightToeBase
				{
					OFFSET	 0.000000	 0.207540	 0.000000
					CHANNELS 3 Zrotation Xrotation Yrotation
					End Site
					{
						OFFSET	 0.000000	 0.207540	 0.000000
					}
				}
			}
		}
	}
	JOINT Spine
	{
		OFFSET	 0.000184	 0.117403	 0.007763
		CHANNELS 3 Zrotation Xrotation Yrotation
		JOINT Spine1
		{
			OFFSET	 0.000000	 0.137269	 0.000000
			CHANNELS 3 Zrotation Xrotation Yrotation
			JOINT Spine2
			{
				OFFSET	 0.000000	 0.156879	 0.000000
				CHANNELS 3 Zrotation Xrotation Yrotation
				JOINT LeftShoulder
				{
					OFFSET	 0.080501	 0.160143	 0.002496
					CHANNELS 3 Zrotation Xrotation Yrotation
					JOINT LeftArm
					{
						OFFSET	 0.000000	 0.164363	 0.000000
						CHANNELS 3 Zrotation Xrotation Yrotation
						JOINT LeftForeArm
						{
							OFFSET	 0.000000	 0.364576	 0.000000
							CHANNELS 3 Zrotation Xrotation Yrotation
							JOINT LeftHand
							{
								OFFSET	 0.000000	 0.360812	 0.000000
								CHANNELS 3 Zrotation Xrotation Yrotation
								JOINT LeftHandIndex1
								{
									OFFSET	 0.000000	 0.086006	 0.000000
									CHANNELS 3 Zrotation Xrotation Yrotation
									JOINT LeftHandIndex2
									{
										OFFSET	 0.000000	 0.047237	 0.000000
										CHANNELS 3 Zrotation Xrotation Yrotation
										JOINT LeftHandIndex3
										{
											OFFSET	-0.004284	 0.038165	 0.000551
											CHANNELS 3 Zrotation Xrotation Yrotation
											End Site
											{
												OFFSET	-0.004284	 0.038165	 0.000551
											}
										}
									}
								}
							}
						}
					}
				}
				JOINT Neck
				{
					OFFSET	 0.000000	 0.176489	 0.000000
					CHANNELS 3 Zrotation Xrotation Yrotation
					JOINT Head
					{
						OFFSET	 0.000000	 0.077941	 0.001747
						CHANNELS 3 Zrotation Xrotation Yrotation
						End Site
						{
							OFFSET	 0.000000	 0.077941	 0.001747
						}
					}
				}
				JOINT RightShoulder
				{
					OFFSET	-0.080363	 0.159706	-0.000306
					CHANNELS 3 Zrotation Xrotation Yrotation
					JOINT RightArm
					{
						OFFSET	 0.000000	 0.164196	 0.000000
						CHANNELS 3 Zrotation Xrotation Yrotation
						JOINT RightForeArm
						{
							OFFSET	 0.000000	 0.365611	 0.000000
							CHANNELS 3 Zrotation Xrotation Yrotation
							JOINT RightHand
							{
								OFFSET	 0.000000	 0.360648	 0.000000
								CHANNELS 3 Zrotation Xrotation Yrotation
								JOINT RightHandIndex1
								{
									OFFSET	 0.000000	 0.069977	 0.000000
									CHANNELS 3 Zrotation Xrotation Yrotation
									JOINT RightHandIndex2
									{
										OFFSET	 0.000000	 0.052305	 0.000000
										CHANNELS 3 Zrotation Xrotation Yrotation
										JOINT RightHandIndex3
										{
											OFFSET	 0.009002	 0.042196	 0.000782
											CHANNELS 3 Zrotation Xrotation Yrotation
											End Site
											{
												OFFSET	 0.009002	 0.042196	 0.000782
											}
										}
									}
								}
							}
						}
					}
				}
			}
		}
	}
}
MOTION
Frames:    12
Frame Time: 0.03333334
-0.104939	 1.235152	-0.053312	 8.400084	-5.417997	-167.096500	-166.394100	 28.765370	-6.121499	 9.594511	-32.048850	 12.222430	 13.660510	 69.970960	-18.629620	 1.145511	 26.465390	-2.653138	 171.481000	 11.640870	 37.906750	-2.757511	-32.415080	 10.872190	 23.319510	 76.594370	-20.949440	-1.833453	 35.067340	 2.971136	-4.104791	 5.154352	 14.928400	-2.891297	 8.679844	 4.708435	 0.401158	-8.857178	 1.574217	-104.293000	 2.420451	 92.816950	 20.987810	 54.909190	 4.989396	 10.111830	-0.250568	-8.116531	 16.381400	 8.543828	 25.642040	 3.877584	 55.228410	-2.226314	-8.732221	 61.273530	 9.023157	 6.626012	 34.677720	 0.047306	 4.122163	-10.317910	-3.289313	 2.643891	-8.851583	-7.808932	 106.251200	 25.044340	-98.005090	-14.427200	 45.552750	-14.801030	-10.372720	-0.200103	 8.097417	-23.155800	-4.330729	-59.463440	-4.797935	 12.553150	-0.586541	 14.042560	 36.241430	-8.773805	-8.487567	 29.375940	-1.597291
-0.093691	 1.236082	-0.048578	 6.402647	-4.801867	-171.582300	-165.466400	 26.036550	-11.006660	 9.012274	-30.472010	 11.565230	 11.630280	 69.846200	-16.974700	 1.149030	 26.513210	-2.654521	 171.173600	 11.162300	 33.968350	-2.641503	-31.311900	 11.039300	 24.335030	 76.835870	-21.834170	-1.654705	 32.971620	 2.879289	-3.021142	 4.902147	 13.394280	-3.061028	 7.128247	 4.824676	 1.196308	-7.354602	 0.331816	-104.842200	 2.781751	 92.765460	 16.992520	 57.268200	 8.423324	 10.230690	-0.250336	-8.304113	 12.778890	 10.693780	 29.676370	 3.495863	 52.167410	-1.916678	-8.090273	 58.213490	 8.125279	 6.514885	 32.283400	 0.057425	 4.108501	-9.494710	-2.772181	 1.872427	-7.969182	-5.757490	 108.247700	 23.231740	-97.955950	-7.487750	 44.953440	-16.624570	-10.464270	-0.198847	 8.285327	-15.066200	-6.334327	-47.880740	-4.163140	 10.338870	-0.240268	 13.502700	 32.544470	-7.675862	-8.525062	 24.858190	-1.285815
-0.076352	 1.237031	-0.042828	 4.400465	-4.165433	-175.871200	-164.692400	 23.111080	-15.496220	 8.193482	-28.160780	 10.858000	 9.179468	 69.142110	-15.180840	 1.149169	 26.515140	-2.654574	 171.245500	 10.455480	 30.290790	-2.463327	-29.565810	 11.165970	 24.933060	 77.272960	-22.610030	-1.460410	 30.580310	 2.786277	-2.156825	 4.616552	 11.473070	-2.518693	 5.453426	 4.294661	 1.785817	-5.723346	-1.231804	-105.405600	 3.214903	 92.742940	 13.891340	 58.400600	 12.389340	 10.280910	-0.248173	-8.445068	 8.595666	 12.737510	 34.300800	 3.124491	 48.658740	-1.627542	-7.525337	 54.756430	 7.266908	 6.390844	 29.524770	 0.062161	 4.087010	-8.788042	-2.272167	 1.207629	-7.114551	-3.836328	 110.130100	 21.459100	-97.837460	-2.140981	 43.350620	-18.292800	-10.557750	-0.198925	 8.425976	-3.449174	-6.582616	-34.516000	-3.445329	 7.902081	 0.173784	 13.014960	 28.370230	-6.535117	-8.534635	 19.754960	-0.949616
-0.060428	 1.238368	-0.036326	 3.006101	-3.764878	-178.890200	-164.110200	 20.799530	-18.649590	 7.351544	-25.670210	 9.625451	 5.511461	 68.074940	-12.001720	 1.149453	 26.519050	-2.654686	 171.371500	 10.293260	 27.519850	-2.348033	-28.402470	 11.097320	 24.690940	 77.345460	-22.169880	-1.354776	 29.230660	 2.738869	-1.410420	 4.329649	 10.553940	-2.847673	 4.668888	 4.331026	 2.743088	-4.805318	-2.996754	-106.000900	 3.581890	 92.731140	 13.433120	 57.854220	 13.633780	 10.341080	-0.248171	-8.536560	 8.084437	 12.649760	 36.712600	 2.567477	 42.773700	-1.227008	-6.828761	 48.766050	 6.048776	 6.182731	 24.726280	 0.054481	 4.047671	-8.330739	-1.882011	 0.704817	-6.635549	-2.553944	 111.785800	 19.969390	-97.709290	 0.625490	 42.599070	-18.123670	-10.591210	-0.197913	 8.517667	 4.512539	-2.892021	-24.837170	-2.958894	 6.261145	 0.474255	 12.748050	 25.548910	-5.811322	-8.523787	 16.401130	-0.734508
-0.041398	 1.239437	-0.027029	 2.162221	-3.479038	 179.082500	-163.196700	 18.825270	-20.809610	 6.413425	-22.761510	 7.163819	-0.880593	 66.356100	-5.992692	 1.150059	 26.527300	-2.654926	 171.965500	 10.541910	 25.325990	-2.274918	-27.651150	 10.696620	 23.713550	 76.920570	-20.326100	-1.348259	 29.146340	 2.736017	-0.547072	 4.222555	 10.173700	-3.476055	 4.045319	 4.602354	 3.962993	-4.297639	-5.236771	-106.827300	 3.953165	 92.731400	 14.052760	 55.209050	 13.484970	 10.421840	-0.250108	-8.602085	 15.118960	 9.305754	 34.321350	 1.692826	 31.161840	-0.697809	-6.091107	 36.743440	 4.198397	 5.782270	 15.130300	-0.014188	 3.974770	-8.136066	-1.549713	 0.338571	-6.573456	-1.808696	 113.593000	 18.480180	-97.569760	 3.211383	 44.443560	-17.155120	-10.570480	-0.195413	 8.584034	 5.197772	 3.789572	-18.642340	-2.712561	 5.396003	 0.650080	 12.624780	 24.051150	-5.439921	-8.514305	 14.832700	-0.634914
-0.024218	 1.239925	-0.017139	 1.411323	-3.116085	 177.152900	-162.516100	 16.757150	-22.775090	 5.485237	-19.750560	 4.648046	-6.332204	 64.355250	-0.710315	 1.150633	 26.535130	-2.655155	 172.422800	 10.974480	 23.250190	-2.252412	-27.417710	 10.282420	 23.315500	 76.688510	-19.036190	-1.342083	 29.066320	 2.733323	 0.287847	 4.167876	 9.898303	-4.325763	 3.652310	 4.949769	 5.202857	-3.890920	-7.231520	-107.612000	 4.305459	 92.736580	 15.287850	 52.078710	 12.807150	 10.466700	-0.251252	-8.635882	 21.896550	 7.038350	 31.803010	 1.043260	 20.132830	-0.414877	-5.867587	 25.318520	 2.804279	 5.402986	 6.021440	-0.139528	 3.904563	-7.951709	-1.234270	-0.009212	-6.546288	-1.075862	 115.297700	 17.071360	-97.393060	 5.473604	 46.083500	-16.153070	-10.500580	-0.191835	 8.618805	 4.253857	 10.351990	-12.447190	-2.476624	 4.575668	 0.820179	 12.518810	 22.629110	-5.094535	-8.502775	 13.344220	-0.540782
-0.014904	 1.240336	-0.010684	 0.958358	-2.815485	 175.847800	-162.335600	 15.271120	-23.982760	 4.855151	-17.636010	 3.025388	-9.250727	 62.874890	 2.212416	 1.151279	 26.543910	-2.655411	 172.534900	 11.509140	 21.964510	-2.305459	-27.966330	 9.865066	 22.529170	 76.917200	-17.963220	-1.337759	 29.010160	 2.731442	 0.802792	 4.223087	 9.948654	-4.879042	 3.303807	 5.148129	 6.119004	-3.516522	-8.827231	-108.245500	 4.560266	 92.739550	 16.638200	 50.348410	 11.549500	 10.463910	-0.250881	-8.643071	 26.119160	 7.061854	 31.228870	 0.770290	 14.772560	-0.337086	-5.872060	 19.786610	 2.188709	 5.212227	 1.572326	-0.222071	 3.828715	-7.858395	-1.006395	-0.231608	-6.525651	-0.735164	 116.437400	 16.069510	-97.246390	 5.922647	 45.566250	-14.876970	-10.463380	-0.190228	 8.626248	 2.714264	 14.489630	-7.865568	-2.377440	 4.246518	 0.895663	 12.479180	 22.058270	-4.957724	-8.497425	 12.743030	-0.502838
-0.009053	 1.240836	-0.005388	 0.709738	-2.509513	 174.814600	-162.323700	 14.043150	-24.835760	 4.358331	-15.931180	 1.951163	-10.920580	 61.622060	 3.874286	 1.152140	 26.555610	-2.655752	 172.646300	 11.818360	 21.082600	-2.333412	-28.253080	 9.409920	 19.847480	 77.058650	-15.701740	-1.334112	 28.962670	 2.729859	 1.189038	 4.406584	 10.273450	-5.252689	 2.861571	 5.250337	 6.918989	-3.074308	-10.383260	-108.889700	 4.785843	 92.739940	 18.637280	 48.981220	 9.270231	 10.437380	-0.249990	-8.628877	 28.778020	 9.587817	 31.869090	 0.708722	 13.236430	-0.332222	-5.884559	 18.230910	 2.019307	 5.155792	 0.282390	-0.248742	 3.730453	-7.826498	-0.805169	-0.393886	-6.493075	-0.657402	 117.332500	 15.201940	-97.110430	 5.037169	 44.240860	-13.306140	-10.446910	-0.189955	 8.611876	 1.463488	 15.980520	-3.861191	-2.381549	 4.289161	 0.900199	 12.484250	 22.132640	-4.975497	-8.498061	 12.812550	-0.507225
-0.004988	 1.241159	-0.000706	 0.532921	-2.230135	 173.941100	-162.380900	 13.058330	-25.547070	 3.972588	-14.586270	 1.033366	-12.196850	 60.601540	 5.235519	 1.152866	 26.565470	-2.656041	 172.732100	 12.064550	 20.333610	-2.354605	-28.469470	 9.033886	 17.593850	 77.099310	-13.775910	-1.331042	 28.922660	 2.728528	 1.519347	 4.565708	 10.364150	-5.472305	 2.519405	 5.216383	 7.479964	-2.733489	-11.447760	-109.432400	 4.975829	 92.742210	 20.482970	 47.789560	 7.230443	 10.394180	-0.248745	-8.599300	 30.731310	 11.653880	 31.642380	 0.657238	 11.942130	-0.329456	-5.898738	 16.920140	 1.877427	 5.107776	-0.804362	-0.272200	 3.647600	-7.799892	-0.635635	-0.532037	-6.463562	-0.530383	 118.085500	 14.472700	-96.985450	 3.790147	 42.948690	-11.615310	-10.431030	-0.190110	 8.582024	 0.761859	 17.222480	-1.051198	-2.385013	 4.325082	 0.904022	 12.488540	 22.195280	-4.990479	-8.498591	 12.871100	-0.510921
-0.001631	 1.241290	 0.003984	 0.378599	-1.938052	 173.017000	-162.451900	 12.146100	-26.300770	 3.646217	-13.434730	 0.054336	-13.558420	 59.664910	 6.717488	 1.153635	 26.575910	-2.656346	 172.813600	 12.313520	 19.532360	-2.378582	-28.713200	 8.640808	 15.321330	 77.120190	-11.799210	-1.327792	 28.880280	 2.727122	 1.873384	 4.712840	 10.367730	-5.698191	 2.255639	 5.178470	 7.993902	-2.452366	-12.327920	-110.007600	 5.177073	 92.746600	 22.144560	 46.643430	 5.307143	 10.330720	-0.247185	-8.550521	 32.848370	 13.566820	 30.948140	 0.603022	 10.571110	-0.327829	-5.917330	 15.531730	 1.727797	 5.056402	-1.955525	-0.298055	 3.559752	-7.771977	-0.456015	-0.679728	-6.426325	-0.332078	 118.882400	 13.701990	-96.842720	 2.200869	 41.615220	-9.661514	-10.407770	-0.190450	 8.532975	 0.249468	 18.333890	 1.556274	-2.388686	 4.363133	 0.908074	 12.493110	 22.261650	-5.006365	-8.499149	 12.933130	-0.514837
 0.000412	 1.241074	 0.007372	 0.264588	-1.704468	 172.243000	-162.478200	 11.572470	-26.941650	 3.494634	-12.896010	-0.769953	-14.857670	 59.103800	 8.085975	 1.154284	 26.584720	-2.656604	 172.859100	 12.525710	 18.849540	-2.406677	-28.997480	 8.310255	 13.567730	 77.183190	-10.232540	-1.325054	 28.844540	 2.725939	 2.163902	 4.807752	 10.369480	-5.962075	 2.159946	 5.235056	 8.395177	-2.312019	-12.873680	-110.492600	 5.346701	 92.751900	 23.083850	 45.929330	 4.041632	 10.267870	-0.245821	-8.495601	 34.842540	 14.843030	 30.272500	 0.557531	 9.415443	-0.327485	-5.935813	 14.361450	 1.602061	 5.012656	-2.925930	-0.320671	 3.485619	-7.748652	-0.304542	-0.805357	-6.388156	-0.113420	 119.553700	 13.053860	-96.714230	 0.818960	 40.668550	-8.027347	-10.378740	-0.190798	 8.477595	-0.136429	 18.978760	 3.621659	-2.391784	 4.395216	 0.911493	 12.496980	 22.317600	-5.019769	-8.499619	 12.985430	-0.518139
 0.001520	 1.240645	 0.009467	 0.216141	-1.553716	 171.802700	-162.442400	 11.356160	-27.299920	 3.481195	-12.848160	-1.077376	-15.435750	 58.929560	 8.631721	 1.154960	 26.593870	-2.656871	 172.891600	 12.665370	 18.440200	-2.432883	-29.261160	 8.097279	 12.543310	 77.259930	-9.296889	-1.321987	 28.804510	 2.724616	 2.345671	 4.880558	 10.439030	-6.131877	 2.070261	 5.287973	 8.662136	-2.162792	-13.253240	-110.885000	 5.493184	 92.763090	 23.446240	 45.620810	 3.401994	 10.209190	-0.244968	-8.431040	 35.625320	 15.842610	 30.359560	 0.532264	 8.729341	-0.328939	-5.947996	 13.666570	 1.527521	 4.986597	-3.499580	-0.334399	 3.430676	-7.699602	-0.171231	-0.897323	-6.348828	-0.005162	 120.100500	 12.572730	-96.626790	-0.236766	 40.080850	-6.884095	-10.338900	-0.190839	 8.412860	-0.215244	 18.736160	 5.183143	-2.391292	 4.432922	 0.912885	 12.500910	 22.374180	-5.033332	-8.499895	 13.016560	-0.520104
